<svg width="106" height="106" viewBox="0 0 106 106" fill="none" xmlns="http://www.w3.org/2000/svg">
<path d="M74.853 70.4867C77.3842 70.4867 79.7045 70.4867 82.0248 70.4867C83.9655 70.4867 84.4717 71.014 84.4717 72.9547C84.4717 73.9039 84.4506 74.8531 84.4717 75.8023C84.535 77.764 86.0959 79.2617 87.9944 79.2406C89.8506 79.2195 91.3694 77.7429 91.4326 75.8445C91.4748 74.7265 91.4326 73.5875 91.4537 72.4484C91.4748 71.1617 92.1287 70.5078 93.4366 70.5078C96.7905 70.4867 100.144 70.4867 103.477 70.5078C104.764 70.5078 105.418 71.1828 105.418 72.4695C105.439 76.3929 105.439 80.3375 105.418 84.2609C105.418 85.5476 104.743 86.1804 103.435 86.2226C102.422 86.2437 101.389 86.2437 100.376 86.2648C100.355 86.2648 100.313 86.307 100.165 86.4125C100.165 86.7078 100.165 87.1086 100.165 87.4883C100.165 92.6984 100.165 97.9086 100.165 103.098C100.165 104.891 99.5959 105.439 97.8241 105.439C91.2428 105.439 84.6405 105.439 78.0592 105.439C76.2662 105.439 75.7178 104.87 75.7178 103.098C75.7178 97.5289 75.7178 91.9601 75.7178 86.2226C74.6842 86.2226 73.6717 86.2226 72.6803 86.2226C71.0983 86.2015 70.4865 85.6109 70.4865 84.05C70.4865 81.0758 70.4865 78.0804 70.4865 75.1695C56.5014 83.8601 43.4022 83.375 31.7584 71.0773C27.2022 66.268 25.1983 60.1508 25.0717 53.5062C24.9451 46.8828 27.0334 40.9344 31.1889 35.5133C30.5983 35.5133 30.2186 35.5133 29.8389 35.5133C20.9162 35.5133 11.9936 35.5133 3.07092 35.5133C1.00374 35.5133 0.41311 34.7961 0.75061 32.75C1.27795 29.6703 1.7842 26.5906 2.29045 23.4898C2.35374 23.0679 2.33264 22.625 2.35374 22.182C2.35374 15.7695 2.35374 9.35701 2.35374 2.9656C2.35374 1.08826 2.90217 0.560913 4.73733 0.560913C13.6178 0.560913 22.4983 0.560913 31.3998 0.560913C33.2772 0.560913 33.8045 1.10935 33.8256 2.94451C33.8256 7.39529 33.8045 11.825 33.8256 16.2758C33.8256 18.7859 33.7412 21.3172 33.9733 23.8062C34.2053 26.2953 34.7537 28.7633 35.1545 31.1469C49.1608 22.1398 62.3655 22.4562 74.2412 34.8594C78.8608 39.6898 80.8647 45.8281 80.9912 52.5148C81.0756 59.1383 78.9873 65.0656 74.853 70.4867ZM28.5311 52.9789C28.51 66.4156 39.4576 77.4476 52.8311 77.4687C66.4576 77.5109 77.4475 66.5633 77.4686 52.9789C77.4897 39.5844 66.4998 28.5734 53.1053 28.5312C39.542 28.5101 28.5522 39.4367 28.5311 52.9789ZM74.0303 82.7211C75.0217 82.7211 75.9287 82.7211 76.8358 82.7211C78.692 82.7211 79.2405 83.2695 79.2405 85.1258C79.2405 90.3359 79.2405 95.525 79.2405 100.735C79.2405 101.115 79.2405 101.495 79.2405 101.853C85.1467 101.853 90.9264 101.853 96.7272 101.853C96.7272 101.368 96.7272 100.967 96.7272 100.566C96.7272 95.3351 96.7272 90.0828 96.7272 84.8515C96.7272 83.3539 97.3389 82.7211 98.8365 82.7211C99.849 82.7 100.862 82.7211 101.895 82.7211C101.895 79.7679 101.895 76.9203 101.895 73.9883C100.714 73.9883 99.5959 73.9883 98.4569 73.9883C97.3178 73.9883 96.1576 73.9883 95.0186 73.9883C94.5967 79.6836 92.5506 82.3836 88.5428 82.7C86.8553 82.8265 85.2944 82.4047 83.9022 81.4133C81.3498 79.5992 80.7803 76.9414 80.9491 74.0515C78.5655 74.0515 76.3084 74.0515 74.0303 74.0515C74.0303 76.9203 74.0303 79.7258 74.0303 82.7211ZM5.89749 4.10466C5.89749 9.96873 5.89749 15.7273 5.89749 21.4437C14.0608 21.4437 22.1608 21.4437 30.2186 21.4437C30.2186 15.6219 30.2186 9.88435 30.2186 4.10466C22.0975 4.10466 14.0186 4.10466 5.89749 4.10466ZM31.6951 31.9695C31.3155 29.6281 30.9358 27.35 30.5561 25.0508C22.1819 25.0508 13.9342 25.0508 5.55999 25.0508C5.1803 27.35 4.80061 29.607 4.42092 31.9695C13.5334 31.9695 22.5615 31.9695 31.6951 31.9695Z" fill="#558DCA"/>
<path d="M18.0476 105.439C12.9851 105.439 7.92261 105.439 2.86011 105.439C1.15151 105.439 0.560889 104.848 0.560889 103.14C0.560889 95.9258 0.581982 88.7328 0.539795 81.5188C0.539795 80.4008 0.96167 79.7047 1.93198 79.1773C6.84683 76.4984 11.7406 73.7773 16.6132 71.0141C17.6257 70.4445 18.4484 70.4445 19.4609 71.0141C24.3335 73.7773 29.2273 76.4984 34.1421 79.1773C35.1335 79.7258 35.5343 80.4219 35.5343 81.5398C35.5132 88.7539 35.5132 95.9469 35.5132 103.161C35.5132 104.87 34.9226 105.439 33.214 105.439C28.1726 105.439 23.1101 105.439 18.0476 105.439ZM31.9273 101.895C31.9695 101.727 32.0117 101.663 32.0117 101.6C32.0117 95.2719 32.0328 88.9437 31.9906 82.5945C31.9906 82.257 31.5898 81.7719 31.2523 81.582C27.139 79.2617 23.0046 76.9836 18.8914 74.6633C18.2796 74.3047 17.8156 74.3258 17.2039 74.6844C13.1117 76.9836 9.01948 79.2828 4.9062 81.5188C4.27339 81.8563 4.04136 82.2148 4.04136 82.9531C4.08354 88.9648 4.06245 94.9555 4.06245 100.967C4.06245 101.284 4.10464 101.6 4.12573 101.895C6.46714 101.895 8.70308 101.895 11.0445 101.895C11.0445 101.452 11.0445 101.073 11.0445 100.672C11.0445 96.0102 11.0445 91.3484 11.0445 86.6867C11.0445 85.0414 11.6351 84.4719 13.2804 84.4508C16.4445 84.4508 19.6085 84.4508 22.7726 84.4508C24.4179 84.4508 25.0085 85.0414 25.0085 86.6867C25.0085 91.3484 25.0085 96.0102 25.0085 100.672C25.0085 101.052 25.0085 101.452 25.0085 101.874C27.3921 101.895 29.6492 101.895 31.9273 101.895ZM14.6304 88.0156C14.6304 92.6984 14.6304 97.2969 14.6304 101.853C16.9718 101.853 19.25 101.853 21.5492 101.853C21.5492 99.4695 21.5492 97.1914 21.5492 94.8922C21.5492 92.6141 21.5492 90.3359 21.5492 87.9945C19.1867 88.0156 16.9507 88.0156 14.6304 88.0156Z" fill="#558DCA"/>
<path d="M105.439 18.1531C105.418 27.7719 97.5077 35.5766 87.8046 35.5344C78.2913 35.4922 70.4655 27.582 70.4866 18.0688C70.5077 8.42891 78.3335 0.582031 87.9101 0.582031C97.6554 0.582031 105.46 8.40781 105.439 18.1531ZM87.889 4.0625C80.2741 4.08359 73.9882 10.3695 73.9882 17.9844C73.9882 25.7469 80.253 32.0328 87.9944 32.0117C95.6936 31.9906 101.937 25.7469 101.958 18.0477C101.937 10.3063 95.6515 4.04141 87.889 4.0625Z" fill="#558DCA"/>
<path d="M38.4453 94.2172C38.8672 93.036 39.2258 92.0235 39.6055 90.9477C50.532 94.5336 61.0789 93.8797 71.4359 88.775C71.9633 89.7875 72.4695 90.7578 73.0391 91.8547C61.7961 97.3602 50.3633 98.1617 38.4453 94.2172Z" fill="#558DCA"/>
<path d="M67.5546 11.7828C67.1539 12.9218 66.7953 13.9343 66.3945 15.0734C56.839 11.8882 47.3679 12.057 37.9179 15.7273C37.475 14.6304 37.0531 13.6179 36.6101 12.4999C46.8828 8.49213 57.1132 8.28119 67.5546 11.7828Z" fill="#558DCA"/>
<path d="M11.7827 38.4453C12.753 38.7828 13.4913 39.0359 14.2506 39.2891C14.4827 39.3734 14.7147 39.4789 15.0522 39.6266C13.5967 43.993 12.7952 48.4227 12.7952 53C12.7952 57.5352 13.5545 61.9648 15.0733 66.3945C13.9553 66.7953 12.9217 67.1539 11.7827 67.5547C8.49204 57.8094 8.49204 48.1906 11.7827 38.4453Z" fill="#558DCA"/>
<path d="M90.9265 39.6054C92.0445 39.2046 93.057 38.846 94.0695 38.5085C97.4445 44.3726 97.4656 60.6359 94.1117 67.5124C93.0992 67.1539 92.0867 66.8164 90.9265 66.4156C93.9429 57.4718 93.964 48.5492 90.9265 39.6054Z" fill="#558DCA"/>
<path d="M45.9757 55.7632C46.3554 55.4046 46.6507 55.1304 46.9249 54.8562C52.4304 49.3507 57.9359 43.8453 63.4413 38.3398C64.8757 36.9054 65.5718 36.9054 67.0062 38.3187C68.4827 39.7742 69.9382 41.2507 71.4148 42.7273C72.5327 43.8663 72.5327 44.689 71.4148 45.8281C63.4624 53.7804 55.5101 61.7328 47.5577 69.6851C46.4398 70.8031 45.596 70.8031 44.4781 69.664C41.1663 66.3734 37.8757 63.0828 34.5851 59.771C33.5093 58.6953 33.4882 57.8304 34.5429 56.7546C36.1038 55.1726 37.6648 53.6117 39.2468 52.0507C40.3226 50.9749 41.1874 50.9749 42.2632 52.0296C43.4867 53.2109 44.6679 54.4343 45.9757 55.7632ZM38.2343 58.1468C40.8921 60.8046 43.5077 63.4203 46.039 65.9515C53.232 58.7585 60.5093 51.4812 67.7445 44.246C66.9218 43.4234 66.0359 42.5585 64.9812 41.5249C64.7702 41.7992 64.5593 42.1578 64.2851 42.432C58.8851 47.8531 53.4851 53.2531 48.064 58.6531C46.2499 60.4671 45.7437 60.4882 43.9718 58.6742C42.9382 57.6195 41.9468 56.5226 40.9765 55.489C39.9218 56.5226 39.0359 57.3663 38.2343 58.1468Z" fill="#558DCA"/>
<path d="M26.7382 7.62732C26.7382 8.78748 26.7382 9.86326 26.7382 11.0023C20.9585 11.0023 15.221 11.0023 9.39917 11.0023C9.39917 9.92654 9.39917 8.80857 9.39917 7.62732C15.1367 7.62732 20.8953 7.62732 26.7382 7.62732Z" fill="#558DCA"/>
<path d="M26.7382 14.6305C26.7382 15.7906 26.7382 16.8664 26.7382 18.0055C20.9585 18.0055 15.221 18.0055 9.39917 18.0055C9.39917 16.9297 9.39917 15.8117 9.39917 14.6305C15.1367 14.6305 20.8953 14.6305 26.7382 14.6305Z" fill="#558DCA"/>
<path d="M86.2226 7.58508C87.446 7.58508 88.5007 7.58508 89.7241 7.58508C89.7241 8.02805 89.7241 8.44993 89.7241 8.8718C89.7241 11.7827 89.7452 14.6937 89.703 17.6046C89.703 18.1741 89.5343 18.9124 89.1546 19.2921C86.9186 21.6335 84.5983 23.8906 82.278 26.2109C81.4976 25.346 80.7382 24.5234 79.9155 23.6163C81.6241 21.9077 83.4382 20.0304 85.3366 18.2374C86.0116 17.6046 86.2437 16.9718 86.2437 16.0437C86.1804 13.2593 86.2226 10.4538 86.2226 7.58508Z" fill="#558DCA"/>
</svg>
