<svg width="116" height="116" viewBox="0 0 116 116" fill="none" xmlns="http://www.w3.org/2000/svg">
<path d="M113.281 46.9891C112.828 47.4422 112.42 47.9406 111.945 48.3711C105.601 53.8992 99.2345 59.4047 92.8681 64.9328C92.7775 65.0008 92.7095 65.0688 92.6189 65.1367C92.0298 65.6805 91.3728 65.9977 90.5572 65.6125C89.7868 65.25 89.6282 64.5703 89.6282 63.8227C89.6282 61.6024 89.6282 59.3594 89.6282 57.1391C89.6282 55.9609 89.6282 54.7828 89.6282 53.4461C85.1423 53.7406 80.7243 52.8797 76.4196 54.1484C69.9626 56.0289 65.8618 61.7156 65.8392 68.6484C65.8165 76.2156 65.8392 83.7602 65.8392 91.3274C65.8392 91.6898 65.8392 92.0523 65.8392 92.4148C65.7939 93.3664 65.3407 93.9781 64.3665 94.0914C63.4603 94.182 62.7353 93.5703 62.6673 92.5281C62.5767 91.4633 62.622 90.3758 62.622 89.2883C62.6446 86.1391 62.2368 83.0352 61.104 80.0899C57.547 70.7328 50.8634 64.9102 41.1439 62.6445C38.9009 62.1234 36.522 62.0555 34.1884 61.9875C31.2431 61.8742 28.2978 61.9648 25.3298 61.9648C23.6986 61.9648 23.2001 61.4664 23.1775 59.8352C23.1548 57.6828 23.1775 55.5305 23.1775 53.0609C17.604 57.9094 12.2571 62.5312 6.8423 67.2438C8.2923 68.4898 9.67433 69.6906 11.0564 70.9141C11.3056 71.118 11.5548 71.3219 11.7814 71.5711C12.3704 72.2508 12.4837 72.9758 11.8946 73.7234C11.3509 74.4031 10.422 74.5164 9.67433 73.9273C8.76808 73.225 7.90715 72.432 7.04621 71.6844C5.95871 70.7328 4.87121 69.8039 3.78371 68.8523C2.44699 67.6742 2.44699 66.7906 3.76105 65.6578C7.61262 62.3047 11.4868 58.9516 15.3384 55.6211C17.9665 53.3328 20.6173 51.0445 23.2454 48.7563C23.8798 48.2125 24.5142 47.6461 25.4657 48.0992C26.372 48.5297 26.44 49.3453 26.44 50.2063C26.44 53.0156 26.44 55.8023 26.44 58.7477C26.9611 58.7477 27.3689 58.7477 27.7993 58.7477C31.0618 58.793 34.347 58.7703 37.6095 58.9063C41.6876 59.0648 45.5392 60.2203 49.1868 62.0555C49.4134 62.1688 49.64 62.282 49.8665 62.3727C49.9345 62.3953 50.0025 62.3727 50.1837 62.35C50.2064 61.9875 50.229 61.6023 50.229 61.2398C50.229 54.4656 50.229 47.7141 50.229 40.9398C50.229 40.5547 50.229 40.1469 50.2517 39.7617C50.3423 38.8781 50.8861 38.3797 51.747 38.357C52.6079 38.3117 53.197 38.7648 53.3556 39.6258C53.4236 40.0109 53.4462 40.4188 53.4462 40.8039C53.4462 44.9047 53.4462 49.0055 53.4462 53.1063C53.4462 53.4461 53.4462 53.7859 53.4462 54.1258C53.5142 54.1484 53.5821 54.1484 53.6275 54.1711C54.1259 53.3555 54.6243 52.5398 55.1454 51.7469C57.0032 48.9375 59.2915 46.5133 61.9423 44.4063C62.3048 44.1117 62.5993 43.4773 62.5993 42.9789C62.6446 37.1789 62.622 31.4016 62.622 25.6016C62.622 23.5398 63.0978 23.0641 65.1821 23.0641C67.4931 23.0641 69.7814 23.0641 72.3868 23.0641C67.5384 17.6266 62.8486 12.3477 58.0454 6.95547C53.3103 12.2797 48.5978 17.5586 43.7946 22.9508C44.1798 22.9961 44.4517 23.0414 44.7009 23.0414C46.8986 23.0414 49.0962 23.0414 51.2939 23.0414C52.8118 23.0414 53.4236 23.6078 53.4462 25.1031C53.4689 27.7313 53.4689 30.3594 53.4462 32.9875C53.4236 34.2789 52.8345 34.9813 51.815 34.9586C50.7954 34.9586 50.229 34.2789 50.229 32.9648C50.2064 30.7898 50.229 28.5922 50.229 26.2813C48.4392 26.2813 46.7626 26.2813 45.0634 26.2813C43.5907 26.2813 42.1181 26.2586 40.6454 26.2813C39.8071 26.3039 39.0368 26.1906 38.6517 25.3297C38.2665 24.4688 38.6743 23.8117 39.2407 23.2C44.0665 17.8078 48.8696 12.393 53.6728 7.00078C54.6243 5.93594 55.5759 4.84844 56.5501 3.78359C57.615 2.62812 58.4986 2.62812 59.5634 3.78359C65.3634 10.2859 71.1407 16.7883 76.9407 23.2906C77.4845 23.9023 77.8243 24.5594 77.4392 25.3523C77.0767 26.168 76.3517 26.3039 75.5587 26.3039C72.3868 26.2813 69.2376 26.3039 65.9751 26.3039C65.9751 31.4242 65.9751 36.4992 65.9751 41.8461C73.3837 37.4055 81.5173 37.9492 89.6736 38.0398C89.6736 35.9781 89.6736 34.0297 89.6736 32.1039C89.6736 31.1297 89.6736 30.1555 89.6736 29.1813C89.6736 28.3883 89.8775 27.6859 90.6931 27.3234C91.4861 26.9836 92.0751 27.3461 92.6415 27.8219C96.0626 30.7898 99.4837 33.7578 102.905 36.7484C105.873 39.3086 108.841 41.8914 111.786 44.4742C112.33 44.95 112.806 45.4711 113.327 45.9695C113.281 46.2641 113.281 46.6266 113.281 46.9891ZM92.8454 32.2852C92.8454 34.6867 92.8454 36.7711 92.8454 38.8555C92.8454 40.7586 92.3923 41.1891 90.4892 41.1891C86.7736 41.2117 83.0806 41.1211 79.365 41.2797C66.4735 41.8688 56.0517 51.0672 53.7407 63.7547C53.6275 64.4117 53.7181 64.8648 54.3071 65.318C57.479 67.7648 60.0392 70.7555 61.9876 74.2445C62.1009 74.4484 62.2821 74.6523 62.4181 74.8563C62.5087 74.8336 62.5993 74.8109 62.69 74.7883C62.69 72.0469 62.554 69.3281 62.7126 66.6094C63.1884 58.4305 70.2118 51.1352 78.3681 50.5008C82.5595 50.1836 86.7736 50.2969 90.9876 50.2742C92.2564 50.2742 92.8228 50.9086 92.8228 52.2906C92.8454 54.6922 92.8228 57.1164 92.8228 59.518C92.8228 59.8125 92.8681 60.107 92.9134 60.5828C98.4189 55.8023 103.766 51.1578 109.181 46.468C103.788 41.7781 98.4415 37.1563 92.8454 32.2852Z" fill="#558DCA"/>
<path d="M64.1626 94.6352C63.6641 94.6352 63.211 94.4766 62.8485 94.1821C62.3954 93.7969 62.1235 93.2305 62.0555 92.5508C61.9876 91.6899 62.0102 90.8289 62.0102 89.9907C62.0102 89.7414 62.0102 89.5149 62.0102 89.2657C62.0329 85.8672 61.5344 82.9219 60.5376 80.2711C57.0712 71.1406 50.5008 65.386 40.9852 63.1883C38.9235 62.7125 36.7032 62.6219 34.5508 62.5539L34.143 62.5313C32.1946 62.4633 30.2008 62.486 28.2751 62.486C27.3008 62.486 26.304 62.5086 25.3071 62.5086C23.3587 62.5086 22.611 61.761 22.5883 59.8352C22.5657 58.3399 22.5883 56.8446 22.5883 55.2586C22.5883 54.9414 22.5883 54.6242 22.5883 54.2844L7.68053 67.2211L8.36022 67.8102C9.37975 68.6938 10.3766 69.5774 11.3962 70.4383C11.4415 70.4836 11.5094 70.5289 11.5548 70.5742C11.7587 70.7555 11.9626 70.9141 12.1665 71.1407C12.9594 72.0696 13.0048 73.1117 12.3024 74.018C11.5548 74.9469 10.2633 75.0828 9.28913 74.3352C8.60944 73.8141 7.97507 73.2477 7.34069 72.7039C7.11413 72.5 6.86491 72.2961 6.63835 72.0922L6.02663 71.5485C5.16569 70.8008 4.25944 70.0305 3.37585 69.2602C2.56022 68.5352 2.17506 67.8782 2.19772 67.2211C2.19772 66.5414 2.58288 65.9071 3.37585 65.2047C5.84538 63.0524 8.33756 60.9 10.8071 58.7703L14.9532 55.168C17.2868 53.1516 19.6204 51.1125 21.954 49.0735L22.8602 48.3031C23.5173 47.7367 24.4008 46.9664 25.6923 47.5555C26.9837 48.1672 26.9837 49.4133 26.9837 50.1836C26.9837 52.2 26.9837 54.2164 26.9837 56.2781V58.1586C27.2555 58.1586 27.5274 58.1586 27.7766 58.1586C28.7735 58.1813 29.7477 58.1813 30.7446 58.1813C32.9876 58.2039 35.3212 58.2039 37.6094 58.2946C41.529 58.4531 45.4938 59.5406 49.4133 61.4891C49.4813 61.5117 49.5493 61.5571 49.6399 61.6024C49.6399 61.4664 49.6399 61.3305 49.6399 61.1946C49.6399 57.2297 49.6399 53.2422 49.6399 49.2774V40.8946V40.7133C49.6399 40.3735 49.6399 40.011 49.6852 39.6485C49.8212 38.493 50.5688 37.7906 51.7243 37.7227C52.8798 37.6774 53.6954 38.3117 53.9219 39.4446C53.9899 39.8071 54.0352 40.2149 54.0352 40.736C54.0352 43.9078 54.0352 47.1024 54.0352 50.2742V52.4266C54.2618 52.0867 54.4657 51.7242 54.6923 51.3844C56.5274 48.5977 58.793 46.1735 61.6024 43.9078C61.829 43.7266 62.0555 43.2508 62.0555 42.9336C62.1008 38.5383 62.0782 34.075 62.0782 29.7477C62.0782 28.343 62.0782 26.961 62.0782 25.5563C62.0782 23.1774 62.8032 22.4524 65.2048 22.4524C66.8133 22.4524 68.4219 22.4524 70.1212 22.4524H71.1407L58.0001 7.79378L44.9274 22.475C45.811 22.475 46.6719 22.475 47.5555 22.475C48.779 22.475 50.0251 22.475 51.2485 22.475C53.0837 22.475 53.9446 23.3133 53.9673 25.0805C53.9899 27.618 53.9899 30.2008 53.9673 32.9649C53.9446 34.5508 53.129 35.5024 51.7696 35.5024H51.7469C51.1126 35.5024 49.6173 35.2305 49.5946 32.9422C49.5946 31.4016 49.5946 29.9063 49.5946 28.2977C49.5946 27.7992 49.5946 27.3235 49.5946 26.825H44.9954C44.5649 26.825 44.1118 26.825 43.6813 26.825C42.6618 26.825 41.5969 26.825 40.5774 26.825C39.943 26.825 38.6516 26.8477 38.0626 25.5336C37.4735 24.2196 38.3571 23.2227 38.7423 22.7922C42.5485 18.5328 46.3548 14.2508 50.161 9.96877L53.1743 6.59299C53.4915 6.23049 53.8087 5.89065 54.1258 5.52815C54.7602 4.82581 55.3946 4.07815 56.0516 3.37581C56.7087 2.67346 57.3204 2.33362 57.9774 2.33362C58.6344 2.33362 59.2462 2.69612 59.8805 3.39846C63.2337 7.1594 66.5868 10.9203 69.9626 14.7039C72.4094 17.4453 74.8337 20.1867 77.2805 22.9055C77.5751 23.2453 78.4813 24.2422 77.8923 25.5789C77.3712 26.7117 76.329 26.8703 75.4907 26.8703C73.1798 26.8703 70.9368 26.8703 68.5352 26.8703H66.4508V40.8719C73.1797 37.2016 80.4977 37.3375 87.6118 37.4281C88.0876 37.4281 88.5633 37.4508 89.0165 37.4508V31.5149C89.0165 30.7446 89.0165 29.9516 89.0165 29.1813C89.0165 28.7508 89.0165 27.4141 90.3758 26.8024C91.6219 26.2586 92.5282 27.0516 92.936 27.3914C95.904 29.9742 98.8946 32.5571 101.863 35.1399L105.238 38.0852C107.481 40.0336 109.815 42.05 112.081 44.0438C112.466 44.3836 112.828 44.7461 113.168 45.086C113.327 45.2446 113.485 45.4031 113.644 45.5617L113.825 45.7203V47.261L113.666 47.4196C113.531 47.5555 113.395 47.7141 113.259 47.85C112.964 48.1672 112.647 48.5071 112.284 48.8242C107.232 53.2196 102.157 57.6149 97.1048 62.0102L93.2079 65.386C93.1399 65.4539 93.0493 65.5219 92.9813 65.5899C92.3923 66.111 91.486 66.7227 90.3079 66.1563C89.1751 65.6125 89.0618 64.593 89.0391 63.8453C89.0391 62.1461 89.0391 60.4696 89.0391 58.7703V54.0578C87.6344 54.1258 86.2524 54.0805 84.893 54.0578C81.993 53.9899 79.2516 53.9219 76.5555 54.7149C70.393 56.5274 66.3829 62.0102 66.3829 68.6711C66.3602 73.8594 66.3602 79.161 66.3829 84.2586C66.3829 86.6149 66.3829 88.9711 66.3829 91.3274V91.5539C66.3829 91.8258 66.3829 92.1203 66.3829 92.4149C66.3376 93.7063 65.6126 94.4993 64.3891 94.6352C64.2985 94.6352 64.2305 94.6352 64.1626 94.6352ZM30.7219 61.3531C31.8774 61.3531 33.0329 61.3758 34.1883 61.3985L34.5962 61.4211C36.7938 61.5117 39.0821 61.5797 41.2571 62.0782C51.1579 64.3664 58.0227 70.3703 61.6251 79.8633C62.6899 82.65 63.1883 85.7313 63.1883 89.2657C63.1883 89.5149 63.1883 89.7641 63.1883 89.9907C63.1883 90.8063 63.1657 91.6446 63.2337 92.4375C63.2563 92.8 63.3923 93.0946 63.6188 93.2758C63.8001 93.4344 64.0493 93.5024 64.3212 93.4797C64.7743 93.4344 65.2501 93.2532 65.2954 92.3469C65.2954 92.075 65.2954 91.8032 65.2954 91.5313V91.3047C65.2954 88.9485 65.2954 86.5922 65.2954 84.236C65.2954 79.1156 65.2954 73.8367 65.2954 68.6258C65.318 61.4438 69.6227 55.5305 76.2837 53.5821C79.161 52.7438 82.1063 52.8117 84.961 52.8797C86.479 52.925 88.0649 52.9477 89.6055 52.8571L90.2173 52.8117V58.725C90.2173 60.4242 90.2173 62.1008 90.2173 63.8C90.2173 64.525 90.3985 64.8875 90.829 65.0914C91.3047 65.318 91.6899 65.2047 92.2563 64.7063C92.3469 64.6383 92.4149 64.5703 92.5055 64.4797L96.4024 61.1039C101.455 56.7086 106.53 52.336 111.582 47.9407C111.899 47.6688 112.171 47.3742 112.466 47.0571C112.556 46.9664 112.647 46.8758 112.738 46.7625V46.1508C112.624 46.0375 112.534 45.9469 112.42 45.8336C112.081 45.4938 111.741 45.1539 111.401 44.8594C109.135 42.8657 106.802 40.8492 104.559 38.9008L101.183 35.9555C98.2149 33.3727 95.2243 30.7899 92.2563 28.2071C91.6673 27.7086 91.3274 27.5953 90.8969 27.7992C90.3985 28.0031 90.2173 28.3883 90.2173 29.136C90.2173 29.9063 90.2173 30.6992 90.2173 31.4696V38.561H89.6508C88.9938 38.561 88.3141 38.5383 87.6571 38.5383C80.0673 38.425 72.9079 38.3117 66.2469 42.2992L65.386 42.8203V25.7149H68.6032C70.9821 25.7149 73.2477 25.7149 75.5587 25.7149H75.5813C76.3743 25.7149 76.7141 25.5563 76.918 25.1031C77.0993 24.718 77.0993 24.3102 76.5102 23.6531C74.0633 20.9117 71.6391 18.193 69.1923 15.4516C65.8391 11.6906 62.486 7.90706 59.1329 4.14612C58.7251 3.69299 58.3626 3.46643 58.068 3.46643C57.7508 3.46643 57.3883 3.69299 56.9805 4.14612C56.3235 4.84846 55.6891 5.59612 55.0548 6.29846C54.7376 6.66096 54.4204 7.00081 54.1032 7.36331L51.0899 10.7391C47.2837 15.0211 43.4774 19.2805 39.6712 23.5625C39.1048 24.2196 38.9688 24.6047 39.1727 25.1031C39.3766 25.5789 39.7618 25.7375 40.6454 25.7149C41.6876 25.6922 42.7524 25.6922 43.7719 25.7149C44.2024 25.7149 44.6329 25.7149 45.086 25.7149H50.818V26.2813C50.818 26.9836 50.818 27.6633 50.818 28.3203C50.818 29.9063 50.818 31.4242 50.818 32.9422C50.818 34.3696 51.5204 34.3922 51.8376 34.3922C52.1094 34.3922 52.9024 34.3922 52.9024 32.9649C52.9251 30.1781 52.9251 27.618 52.9024 25.1031C52.8798 23.925 52.5399 23.6078 51.3165 23.6078C50.093 23.6078 48.8469 23.6078 47.6235 23.6078C46.6493 23.6078 45.6977 23.6078 44.7235 23.6078C44.5196 23.6078 44.3157 23.5852 44.1118 23.5399C43.9985 23.5172 43.8852 23.5172 43.7493 23.4946L42.6618 23.3813L58.068 6.09456L73.6555 23.6078H70.0985C68.3993 23.6078 66.7907 23.6078 65.1821 23.6078C63.4149 23.6078 63.1883 23.8344 63.1883 25.5789C63.1883 26.9836 63.1883 28.3656 63.1883 29.7703C63.1883 34.0977 63.1883 38.561 63.1657 42.9563C63.1657 43.6133 62.7805 44.4063 62.2821 44.8141C59.5633 46.9891 57.3883 49.3453 55.6212 52.0188C55.2587 52.5625 54.9188 53.1063 54.579 53.65C54.4204 53.8992 54.2618 54.1711 54.1032 54.4203L53.8993 54.7602L52.8798 54.5336V50.2742C52.8798 47.1024 52.8798 43.9305 52.8798 40.736C52.8798 40.2828 52.8571 39.9656 52.7891 39.6711C52.6758 39.0821 52.3587 38.8328 51.7696 38.8555C51.1805 38.8781 50.886 39.1727 50.818 39.7617C50.7954 40.0563 50.7954 40.3735 50.7954 40.6907V40.8946V49.2774C50.7954 53.2422 50.7954 57.2297 50.7954 61.1946C50.7954 61.4664 50.7727 61.7383 50.7727 61.9875C50.7727 62.1008 50.7501 62.2141 50.7501 62.3274L50.7274 62.8485L50.2063 62.8711C50.1383 62.8711 50.1157 62.8711 50.0704 62.8938C49.9571 62.9164 49.7985 62.9164 49.6399 62.8485C49.368 62.7352 49.1188 62.5992 48.9149 62.5086C45.086 60.6055 41.393 59.586 37.5868 59.4274C35.3212 59.3367 33.0102 59.3141 30.7673 59.3141C29.7704 59.3141 28.7735 59.2914 27.7993 59.2914C27.5274 59.2914 27.2329 59.2914 26.9383 59.2914H25.8962V56.2781C25.8962 54.2164 25.8962 52.2 25.8962 50.1836C25.8962 49.2774 25.8055 48.8469 25.2618 48.5977C24.718 48.3258 24.3782 48.5524 23.6532 49.1641L22.7469 49.9344C20.4133 51.9735 18.0798 53.9899 15.7462 56.0289L11.6001 59.6313C9.01725 61.761 6.54772 63.8907 4.07819 66.043C3.5571 66.4961 3.28522 66.8813 3.28522 67.1985C3.28522 67.5157 3.5571 67.9235 4.10085 68.3992C4.96178 69.1696 5.86803 69.9399 6.72897 70.6875L7.34069 71.2313C7.58991 71.4352 7.81647 71.6391 8.06569 71.8657C8.67741 72.4094 9.31178 72.9532 9.94616 73.4516C10.4446 73.8367 11.011 73.7914 11.3735 73.3383C11.7587 72.8625 11.736 72.4321 11.2829 71.911C11.1469 71.7524 10.9883 71.6164 10.8071 71.4578C10.7391 71.4125 10.6938 71.3446 10.6258 71.2992C9.62897 70.4383 8.6321 69.5547 7.58991 68.6711L5.91335 67.2211L23.6985 51.7922V53.0383C23.6985 53.8086 23.6985 54.5336 23.6985 55.2586C23.6985 56.8446 23.6985 58.3399 23.6985 59.8125C23.6985 61.1039 23.9704 61.3758 25.2844 61.3758C26.2587 61.3758 27.2782 61.3758 28.2298 61.3531C29.068 61.3531 29.8837 61.3531 30.7219 61.3531ZM62.1915 75.5133L61.9649 75.1961C61.9196 75.1282 61.8743 75.0828 61.829 75.0149C61.7157 74.8789 61.6024 74.7203 61.4891 74.5391C59.5407 71.0953 57.0032 68.15 53.9446 65.7711C53.061 65.0914 53.061 64.3211 53.1743 63.6641C54.3298 57.2977 57.4563 51.7242 62.1915 47.5555C66.9493 43.3641 72.8626 41.0078 79.3196 40.7133C81.8798 40.6 84.5079 40.6 87.0227 40.6227C88.1555 40.6227 89.311 40.6227 90.4438 40.6227C92.0298 40.6227 92.2337 40.4188 92.2337 38.8328C92.2337 37.4055 92.2337 35.9781 92.2337 34.4602V31.0391L110.019 46.468L92.4149 61.7383L92.3243 60.6282C92.3016 60.4696 92.3016 60.311 92.279 60.1977C92.2563 59.9485 92.2337 59.7446 92.2337 59.518C92.2337 58.6344 92.2337 57.7281 92.2337 56.8446C92.2337 55.3492 92.2337 53.8086 92.2337 52.2906C92.211 51.0899 91.7805 50.8406 90.9876 50.8406H90.9649C89.8774 50.8406 88.7673 50.8406 87.6798 50.8406C84.6212 50.8406 81.4719 50.818 78.3907 51.0672C70.529 51.6789 63.7321 58.6797 63.2563 66.6547C63.143 68.4899 63.1657 70.393 63.211 72.2281C63.2337 73.0664 63.2337 73.95 63.2337 74.811V75.2414L62.1915 75.5133ZM84.8704 41.7555C83.0579 41.7555 81.2001 41.7781 79.3876 41.8461C66.8587 42.4125 56.5501 51.4524 54.2844 63.868C54.1938 64.3891 54.2618 64.593 54.6243 64.8875C57.6149 67.2211 60.1298 70.0531 62.1008 73.361C62.1008 72.9758 62.1008 72.6133 62.0782 72.2281C62.0555 70.3703 62.0102 68.4672 62.1235 66.5641C62.6219 58.0453 69.8946 50.5688 78.3001 49.9117C81.4266 49.6625 84.5985 49.6852 87.6798 49.6852C88.7446 49.6852 89.8548 49.6852 90.9423 49.6852C92.0298 49.6852 93.3212 50.1156 93.3438 52.268C93.3665 53.786 93.3665 55.3266 93.3438 56.8219C93.3438 57.6828 93.3438 58.5438 93.3438 59.4047L108.252 46.468L93.4118 33.5313V34.4602C93.4118 36.0008 93.4118 37.4055 93.4118 38.8328C93.4118 41.0305 92.6868 41.7328 90.4891 41.7328C89.3337 41.7328 88.1782 41.7328 87.0454 41.7328C86.3204 41.7555 85.5954 41.7555 84.8704 41.7555Z" fill="#558DCA"/>
<path d="M26.3721 74.3352C26.3721 77.3938 26.3721 80.4071 26.3721 83.443C26.3721 83.9188 26.4854 84.4172 26.3268 84.8251C26.1229 85.3915 25.8057 86.1165 25.3526 86.3204C24.8994 86.5243 24.0611 86.343 23.608 86.0258C22.6111 85.3462 21.7276 84.4626 20.8213 83.6469C18.7822 81.8797 16.7432 80.1126 14.7041 78.3454C14.0471 77.779 13.6846 77.1219 14.0697 76.261C14.5455 75.1962 15.7463 75.0149 16.7658 75.8985C18.5557 77.4165 20.3002 78.9571 22.0674 80.4977C22.3619 80.7469 22.6338 80.9735 23.1322 81.404C23.1322 78.7985 23.1322 76.4649 23.1322 74.154C23.1322 71.254 23.3588 71.0047 26.2588 71.0274C30.0424 71.0727 33.826 70.9594 37.5869 71.254C45.7432 71.911 52.8799 79.2063 53.2197 87.3852C53.5143 94.2954 53.3557 101.206 53.3783 108.116C53.3783 108.659 53.3783 109.203 53.3783 109.815C56.4143 109.815 59.4276 109.815 62.5768 109.815C62.5768 109.43 62.5768 109.045 62.5768 108.682C62.5768 105.759 62.5768 102.859 62.5768 99.9368C62.5768 99.5516 62.5994 99.1438 62.6447 98.7587C62.7807 97.8751 63.3697 97.3993 64.208 97.4219C65.0916 97.4446 65.6807 97.9657 65.7486 98.8946C65.7713 99.1891 65.7713 99.461 65.7713 99.7555C65.7713 103.426 65.7713 107.096 65.7713 110.766C65.7713 112.692 65.3182 113.145 63.4377 113.145C59.7674 113.145 56.0971 113.145 52.4268 113.145C50.5916 113.145 50.1158 112.692 50.1158 110.857C50.1158 103.698 50.1385 96.5383 50.1158 89.379C50.0932 81.9024 45.4033 76.1477 38.1307 74.5618C37.6776 74.4712 37.2018 74.3805 36.7486 74.3805C33.3729 74.3352 29.9518 74.3352 26.3721 74.3352Z" fill="#558DCA"/>
<path d="M58.0681 113.666C56.2103 113.666 54.3525 113.666 52.4721 113.666C50.3197 113.666 49.5947 112.941 49.5947 110.812C49.5947 108.297 49.5947 105.805 49.5947 103.29C49.5947 98.7133 49.5947 93.9782 49.5947 89.3336C49.5721 82.1969 45.0408 76.6008 38.04 75.0829C37.6549 74.9922 37.2017 74.9016 36.7713 74.9016C34.1885 74.879 31.6283 74.9016 28.9322 74.9016H26.9385V76.4876C26.9385 78.8211 26.9385 81.1094 26.9385 83.4204C26.9385 83.5563 26.9385 83.6696 26.9611 83.8055C26.9838 84.1907 27.0064 84.5985 26.8705 85.0063C26.576 85.7766 26.2361 86.5469 25.6017 86.8188C24.9221 87.1133 23.9025 86.8868 23.3135 86.4563C22.5658 85.9352 21.8861 85.3235 21.2517 84.7344C21.0025 84.5079 20.7307 84.2586 20.4814 84.0321L18.3744 82.1969C17.0377 81.0415 15.701 79.8633 14.3642 78.7079C13.4127 77.8696 13.1408 76.9633 13.5939 75.9665C13.8658 75.3321 14.3869 74.9016 14.9986 74.743C15.701 74.5844 16.4939 74.811 17.1736 75.3774C18.3971 76.4196 19.6205 77.4844 20.7986 78.504C21.365 79.0024 21.9088 79.4782 22.4752 79.9766C22.5205 80.0219 22.5658 80.0446 22.6111 80.0899V74.0407C22.6111 72.5227 22.6564 71.5711 23.2682 70.9821C23.8799 70.393 24.8767 70.3477 26.3267 70.3704C27.3463 70.3704 28.3885 70.3704 29.408 70.3704C32.1267 70.3704 34.9361 70.3704 37.7002 70.5969C41.7783 70.9141 45.7431 72.8399 48.8017 76.0118C51.883 79.1836 53.6728 83.1938 53.8541 87.2719C54.058 92.0751 54.0353 96.9461 54.0353 101.681C54.0353 103.766 54.0127 105.918 54.0353 108.025C54.0353 108.388 54.0353 108.75 54.0353 109.135V109.158H62.101V106.507C62.101 104.287 62.101 102.044 62.101 99.8235C62.101 99.4836 62.101 99.0079 62.1916 98.5547C62.3728 97.3993 63.1885 96.6969 64.3213 96.7422C65.4994 96.7649 66.315 97.5352 66.4283 98.736C66.451 99.0305 66.451 99.3477 66.451 99.6196V100.458C66.451 103.856 66.451 107.255 66.451 110.653C66.451 112.873 65.7486 113.598 63.551 113.598C61.6932 113.666 59.8806 113.666 58.0681 113.666ZM31.4244 73.7688C33.2369 73.7688 35.0041 73.7688 36.7939 73.7688C37.3377 73.7688 37.8588 73.8594 38.2892 73.9727C45.8111 75.604 50.7049 81.6305 50.7275 89.3336C50.7502 94.0008 50.7502 98.736 50.7275 103.313C50.7275 105.827 50.7275 108.32 50.7275 110.834C50.7275 112.33 50.9314 112.556 52.4721 112.556C56.1424 112.556 59.8127 112.556 63.483 112.556C65.0463 112.556 65.2502 112.352 65.2502 110.744C65.2502 107.345 65.2502 103.947 65.2502 100.548V99.7329C65.2502 99.4383 65.2502 99.1665 65.2275 98.9172C65.1596 98.2829 64.8424 97.9657 64.2307 97.943C63.6642 97.943 63.3244 98.2149 63.2338 98.804C63.1658 99.1891 63.1658 99.5969 63.1658 99.8915C63.1658 102.112 63.1658 104.355 63.1658 106.575V110.359H52.8346V109.181C52.8346 108.795 52.8346 108.433 52.8346 108.07C52.8119 105.963 52.8346 103.811 52.8346 101.727C52.8572 97.0141 52.8572 92.143 52.676 87.3626C52.3588 79.5461 45.426 72.4094 37.5642 71.775C34.8455 71.5485 32.0588 71.5711 29.3627 71.5711C28.3432 71.5711 27.301 71.5711 26.2588 71.5711C25.0127 71.5485 24.265 71.5938 24.0158 71.8657C23.7213 72.1602 23.6986 73.0665 23.6986 74.1313V82.6047L22.3166 81.4493C22.0674 81.2454 21.8861 81.0868 21.6822 80.9282C21.1158 80.4297 20.5494 79.954 20.0057 79.4555C18.8275 78.436 17.6041 77.3485 16.3807 76.329C15.9728 75.9891 15.5424 75.8532 15.1799 75.9211C14.908 75.9891 14.6814 76.1704 14.5455 76.4876C14.3869 76.8727 14.3189 77.3032 15.0213 77.9149C16.358 79.0704 17.6947 80.2485 19.0314 81.404L21.1385 83.2391C21.4103 83.4657 21.6596 83.7149 21.9314 83.9415C22.5885 84.5305 23.2002 85.0969 23.8799 85.5727C24.2424 85.8219 24.8541 85.9125 25.0807 85.8219C25.2166 85.754 25.4205 85.5047 25.7603 84.6438C25.8283 84.4626 25.8057 84.1907 25.783 83.9188C25.783 83.7602 25.7603 83.6016 25.7603 83.443C25.7603 81.1321 25.7603 78.8211 25.7603 76.5102V73.7915H28.8869C29.7705 73.7688 30.6088 73.7688 31.4244 73.7688Z" fill="#558DCA"/>
</svg>
