<svg width="95" height="112" viewBox="0 0 95 112" fill="none" xmlns="http://www.w3.org/2000/svg">
<path d="M46.6171 111.08C30.0864 106.975 11.3046 89.473 4.48486 70.3822C2.27783 64.2246 0.578418 57.9125 0.379785 51.3796C0.0928714 41.4259 0.137012 31.4722 0.0708008 21.5406C0.0708008 20.0839 0.644629 19.3998 2.21162 18.9583C9.51689 16.8837 16.6897 14.456 23.7081 11.5207C31.212 8.38667 38.4952 4.74507 45.4915 0.59585C46.8819 -0.220752 48.0296 -0.220752 49.42 0.59585C62.9491 8.47495 77.2286 14.5664 92.3026 18.8039C94.4655 19.3998 94.8628 19.9736 94.8628 22.1806C94.8407 30.6556 94.9952 39.1306 94.7745 47.5835C94.311 65.0191 88.1976 80.2255 76.2796 93.0484C70.3868 99.3826 63.6333 104.613 55.7983 108.365C53.4147 109.513 50.8104 110.197 48.2944 111.08C47.7647 111.08 47.1909 111.08 46.6171 111.08ZM90.1839 23.1296C89.7425 22.9751 89.3011 22.8427 88.8597 22.6882C85.7698 21.6951 82.6579 20.7681 79.5901 19.6867C68.7757 15.8906 58.4247 11.1455 48.4931 5.45132C47.7206 5.00991 47.1688 5.00991 46.4405 5.47339C44.8956 6.40034 43.3065 7.26108 41.7175 8.12183C30.2851 14.2574 18.345 19.157 5.85322 22.7324C4.94834 22.9972 4.70557 23.3945 4.70557 24.2994C4.74971 31.097 4.70557 37.9167 4.72764 44.7144C4.74971 52.8142 5.91943 60.7154 8.74443 68.3296C12.0771 77.3785 17.2194 85.2355 24.1054 91.9669C29.8657 97.5949 36.3323 102.23 43.7921 105.386C46.1095 106.357 48.3606 106.688 50.7001 105.562C51.7153 105.077 52.7747 104.702 53.7679 104.194C61.029 100.641 67.3411 95.8072 72.8587 89.8923C83.6511 78.3054 89.4335 64.5777 90.0515 48.7974C90.3825 40.4548 90.206 32.0902 90.2501 23.7255C90.228 23.571 90.206 23.3724 90.1839 23.1296Z" fill="#558DCA"/>
<path d="M39.974 59.4794C40.3933 58.8835 40.592 58.5304 40.8789 58.2434C48.2504 50.872 55.6219 43.5005 62.9713 36.129C65.3549 33.7454 68.1137 32.8626 71.3801 33.944C76.1473 35.5331 77.957 41.7128 74.823 45.6413C74.4699 46.0827 74.0726 46.5241 73.6754 46.9434C64.3838 56.235 55.0922 65.5266 45.8226 74.8182C43.3949 77.246 40.592 78.1729 37.3256 76.9591C36.2221 76.5397 35.1406 75.7893 34.3019 74.9507C29.8437 70.6028 25.4517 66.1888 21.0818 61.7526C17.1092 57.7358 17.9478 51.6886 22.8474 49.2829C25.6062 47.9145 28.4533 48.1132 30.7707 50.1436C33.6398 52.6817 36.2662 55.4847 39.0029 58.1772C39.3119 58.4862 39.5326 58.8835 39.974 59.4794ZM39.9299 73.1188C40.7906 72.5891 41.7176 72.236 42.3576 71.596C51.7596 62.2602 61.0953 52.8804 70.4752 43.5225C70.6959 43.3018 70.9387 43.0591 71.1373 42.7942C72.3732 41.1169 71.5787 38.8657 69.5924 38.2698C68.224 37.8725 67.2308 38.4905 66.3039 39.4175C58.2703 47.4511 50.2367 55.4626 42.2031 63.4962C40.5037 65.1956 39.4223 65.1956 37.7008 63.4962C34.6109 60.4063 31.5211 57.2944 28.4092 54.2266C27.0408 52.8583 25.2752 52.8141 24.0613 54.028C22.8695 55.2198 22.9137 56.9634 24.2158 58.2876C28.6961 62.812 33.1984 67.3143 37.7449 71.7946C38.2967 72.3243 39.0691 72.6112 39.9299 73.1188Z" fill="#558DCA"/>
<path d="M26.8642 23.9241C26.82 24.9614 26.0917 25.6456 25.0103 26.0208C21.6776 27.2126 18.3671 28.4485 15.0345 29.5962C14.262 29.861 13.9751 30.1921 13.9972 31.0308C14.0634 33.0171 14.0413 35.0034 14.0192 36.9897C14.0192 38.027 13.644 38.9099 12.6288 39.3733C11.7681 39.7706 10.819 39.7265 10.2231 39.0202C9.75967 38.4685 9.3624 37.6518 9.34033 36.9235C9.25205 34.1427 9.29619 31.3618 9.29619 28.581C9.29619 27.2788 9.89209 26.396 11.1501 25.9546C15.2772 24.52 19.3823 23.0413 23.5095 21.6067C25.2972 20.9888 26.8862 22.0481 26.8642 23.9241Z" fill="#558DCA"/>
<path d="M76.3459 77.6654C76.2355 77.9081 76.0369 78.4599 75.7279 78.9234C71.9097 84.7279 67.1425 89.6054 61.6912 93.887C60.4994 94.8361 59.1531 94.7257 58.3144 93.6884C57.4757 92.6511 57.6082 91.3048 58.7338 90.3117C60.1021 89.0757 61.5588 87.9501 62.9271 86.7142C66.3039 83.6685 69.2392 80.2476 71.7552 76.4736C72.307 75.6349 72.947 74.9286 74.0947 74.9728C75.4189 75.0169 76.4121 76.0322 76.3459 77.6654Z" fill="#558DCA"/>
<path d="M54.4742 93.7325C55.7101 93.7546 56.7474 94.814 56.7474 96.0278C56.7253 97.2858 55.5777 98.4556 54.2976 98.4556C53.0175 98.4556 51.9802 97.3962 52.0023 96.072C52.0244 94.7698 53.15 93.7104 54.4742 93.7325Z" fill="#558DCA"/>
<path d="M33.5516 20.9227C33.5736 22.1365 32.4701 23.24 31.19 23.2842C29.9541 23.3283 28.8506 22.1807 28.8506 20.9227C28.8727 19.7309 29.932 18.6715 31.1459 18.6273C32.3818 18.5611 33.5295 19.6647 33.5516 20.9227Z" fill="#558DCA"/>
</svg>
